<?xml version="1.0" encoding="UTF-8"?>
<svg xmlns="http://www.w3.org/2000/svg" xmlns:xlink="http://www.w3.org/1999/xlink" width="32px" height="32px" viewBox="0 0 32 32" version="1.1">
<g id="surface1">
<path style=" stroke:none;fill-rule:nonzero;fill:rgb(80%,80%,80%);fill-opacity:1;" d="M 27.132812 27.074219 C 27.109375 27.109375 27.085938 27.144531 27.023438 27.171875 C 26.886719 27.152344 26.789062 27.128906 26.691406 27.128906 C 19.601562 27.125 12.511719 27.125 5.425781 27.128906 C 5.3125 27.128906 5.195312 27.164062 5.082031 27.183594 C 5.050781 27.140625 5.015625 27.097656 5.007812 27.03125 C 5.050781 26.898438 5.085938 26.789062 5.085938 26.675781 C 5.089844 19.652344 5.089844 12.628906 5.089844 5.605469 C 5.089844 5.523438 5.097656 5.441406 5.082031 5.363281 C 5.074219 5.320312 5.023438 5.289062 4.992188 5.25 C 5.007812 5.214844 5.027344 5.179688 5.089844 5.144531 C 6 5.144531 6.867188 5.144531 7.734375 5.144531 C 7.738281 6.308594 7.742188 7.46875 7.742188 8.632812 C 7.742188 10.273438 7.742188 11.914062 7.742188 13.570312 C 9.671875 13.570312 11.59375 13.570312 13.535156 13.570312 C 13.535156 10.777344 13.535156 7.988281 13.566406 5.167969 C 17.941406 5.144531 22.289062 5.144531 26.632812 5.140625 C 26.746094 5.140625 26.855469 5.105469 26.964844 5.085938 C 27.019531 5.105469 27.074219 5.128906 27.121094 5.191406 C 27.097656 5.359375 27.074219 5.480469 27.074219 5.605469 C 27.070312 11.1875 27.070312 16.769531 27.070312 22.351562 C 26.972656 22.355469 26.875 22.363281 26.773438 22.363281 C 21.96875 22.363281 17.164062 22.363281 12.355469 22.363281 C 12.257812 22.363281 12.160156 22.363281 12.039062 22.363281 C 12.039062 23.054688 12.039062 23.746094 12.039062 24.472656 C 17.023438 24.472656 22.023438 24.472656 27.046875 24.503906 C 27.074219 25.289062 27.070312 26.042969 27.074219 26.796875 C 27.074219 26.890625 27.113281 26.984375 27.132812 27.074219 Z M 27.132812 27.074219 "/>
<path style=" stroke:none;fill-rule:nonzero;fill:rgb(80%,80%,80%);fill-opacity:1;" d="M 5.09375 27.203125 C 5.195312 27.164062 5.3125 27.128906 5.425781 27.128906 C 12.511719 27.125 19.601562 27.125 26.691406 27.128906 C 26.789062 27.128906 26.886719 27.152344 27.003906 27.175781 C 26.953125 27.203125 26.878906 27.234375 26.804688 27.234375 C 19.617188 27.234375 12.429688 27.234375 5.242188 27.234375 C 5.195312 27.234375 5.152344 27.230469 5.09375 27.203125 Z M 5.09375 27.203125 "/>
<path style=" stroke:none;fill-rule:nonzero;fill:rgb(80%,80%,80%);fill-opacity:1;" d="M 4.988281 5.277344 C 5.023438 5.289062 5.074219 5.320312 5.082031 5.363281 C 5.097656 5.441406 5.089844 5.523438 5.089844 5.605469 C 5.089844 12.628906 5.089844 19.652344 5.085938 26.675781 C 5.085938 26.789062 5.050781 26.898438 5.011719 27.011719 C 4.988281 26.882812 4.980469 26.75 4.980469 26.613281 C 4.980469 19.511719 4.980469 12.40625 4.988281 5.277344 Z M 4.988281 5.277344 "/>
<path style=" stroke:none;fill-rule:nonzero;fill:rgb(80%,80%,80%);fill-opacity:1;" d="M 27.09375 22.355469 C 27.070312 16.769531 27.070312 11.1875 27.074219 5.605469 C 27.074219 5.480469 27.097656 5.359375 27.121094 5.210938 C 27.148438 5.273438 27.179688 5.355469 27.179688 5.4375 C 27.179688 10.992188 27.179688 16.546875 27.179688 22.101562 C 27.179688 22.1875 27.140625 22.273438 27.09375 22.355469 Z M 27.09375 22.355469 "/>
<path style=" stroke:none;fill-rule:nonzero;fill:rgb(80%,80%,80%);fill-opacity:1;" d="M 26.953125 5.0625 C 26.855469 5.105469 26.746094 5.140625 26.632812 5.140625 C 22.289062 5.144531 17.941406 5.144531 13.570312 5.144531 C 13.558594 5.109375 13.566406 5.050781 13.589844 5.042969 C 13.648438 5.027344 13.714844 5.035156 13.777344 5.035156 C 18.113281 5.035156 22.445312 5.035156 26.78125 5.035156 C 26.835938 5.035156 26.890625 5.039062 26.953125 5.0625 Z M 26.953125 5.0625 "/>
<path style=" stroke:none;fill-rule:nonzero;fill:rgb(80%,80%,80%);fill-opacity:1;" d="M 7.738281 5.121094 C 6.867188 5.144531 6 5.144531 5.109375 5.140625 C 5.121094 5.105469 5.15625 5.039062 5.195312 5.039062 C 6.023438 5.035156 6.847656 5.035156 7.671875 5.039062 C 7.695312 5.039062 7.71875 5.078125 7.738281 5.121094 Z M 7.738281 5.121094 "/>
<path style=" stroke:none;fill-rule:nonzero;fill:rgb(80%,80%,80%);fill-opacity:1;" d="M 27.152344 27.0625 C 27.113281 26.984375 27.074219 26.890625 27.074219 26.796875 C 27.070312 26.042969 27.074219 25.289062 27.070312 24.507812 C 27.109375 24.53125 27.175781 24.582031 27.175781 24.632812 C 27.179688 25.4375 27.175781 26.246094 27.152344 27.0625 Z M 27.152344 27.0625 "/>
</g>
</svg>

